<svg xmlns="http://www.w3.org/2000/svg" viewBox="0 0 1252.45 273.49"><defs><style>.cls-1,.cls-4{fill:#231f20;}.cls-1,.cls-3,.cls-5,.cls-6{stroke:#231f20;}.cls-1,.cls-2,.cls-3,.cls-5,.cls-6{stroke-miterlimit:22.93;}.cls-1,.cls-2,.cls-5,.cls-6{stroke-width:0.22px;fill-rule:evenodd;}.cls-2,.cls-5{fill:#fff;}.cls-2{stroke:#fff;}.cls-3,.cls-6{fill:none;}.cls-3{stroke-width:2.02px;}</style></defs><title>Asset 3</title><g id="Layer_2" data-name="Layer 2"><g id="Lager_1" data-name="Lager 1"><path class="cls-1" d="M75.2,272.75c-8.54-.64-15.58-1.92-21.13-7.26-8.75-6.62-12.59-14.73-15.15-27.32l-4.7,10.67-28.6.43c-1.49-.85-2.35-2.77-3.84-4.27l-.21-49.09c0-9.18-2.13-19.42.64-28.6,2.56-.85,2.35-3.2,4.06-5.34C9,156.86,9.88,150.45,11,143.84L13.3,130.6l4.27-26.68c.85-1.92,0-3,1.49-4.7l1.71-8.75c0-.21-.21-.43-1.07-1.07H.92A40.37,40.37,0,0,1,.28,78.1l51.86-1.28c.43-1.92-3-3.84-4.06-5.55V68.71c-5.34-3.41-11.31,0-16.86-2.13-3,.21-6.19,0-8.32-2.13C21.2,60.6,21.62,55,22.26,50.78c0-.64,1.28-1.71,2.13-2.35l2.13-10.67c3.84-3.2,8.54-.85,13-3l13.66-2.13,35.43-6.19c.43-.85,1.92-1.71,2.35-2.35,11.31-3.41,20.49-13.87,32.87-16,26.25.64,51.65-7.68,75.77,1.92L215,14.92a31,31,0,0,0,3.84,2.13c1.71,0,4.06,1.71,6.19,1.07,6.19-2.35,13.45-2.35,20.28-1.71.21.64,1.28.64,2.35,1.28l-3.84,8.75c.85,0,.85.85,1.71,1.92,2.13,5.34-.85,13,3.63,17.5l-6,16.43c-6.62,3-15.15-1.07-22,1.92L212.86,76c6.19.85,14.51.64,21.77.85l26.68-.21,54.85-.21.43-.64-.21-1.49c-3.84-1.28-5.12-4.7-8.11-7.68-8.54-.43-19.42,3-26.25-3.84-3-4.48-2.13-10.46-1.49-14.94,1.07-1.92,1.07-4.48,4.06-5.34,1.92-4.48,6.19-7,9.6-10.67,4.91-4.48,13.66-4.7,20.7-6.19,19.85-2.56,41.19,0,54.43-16.65L379.13.62l33.3,1.07c12.81,1.92,23.9,3,34.58,8.54,1.28.64,2.35,1.49,3.84,2.35,4.91.21,8.75,6.62,14.09,5.34a12.06,12.06,0,0,0,1.92-3l1.92-1.07L495,14.92c.43.64,2.56.85,3,2.13-1.92,6.19-10.89,7-14.51,13,2.35,3.84,8.32,4.06,10.46,8.54,0,2.35,2.13,6.62,5.34,7.26.85,4.27.21,7.9-2.35,11.1-7.47,5.12-16.86,5.34-25.61,6.62,0,1.07-1.07,1.49-.85,2.56l-8.32,9.18,70.65,1.07h13l1.07,134.68,31.16-.43L579.55,74A18.3,18.3,0,0,1,585.31,73l.21-.43a31.14,31.14,0,0,1-5.34-10.24c-6.83-1.71-17.29,2.13-23.05-3.41l-6.62-12.81a2.58,2.58,0,0,0,.64-2.13c3.63-4.06,8.54-4.91,13-8.54,8.32-3,15.79-6,24.33-7,29.45-2.77,59.34.21,85.37-18.36l13.45-1.07,22.2-.43c1.71,2.77,6.19,2.56,9.18,4.91,1.28,0,1.71.85,3,1.49l19.85,6.83c7.9,3,17.5,4.48,26.68,7.47h2.35c2.13,1.71,5.34,0,8.11,1.71l.43.64c0,2.56-1.71,4.7-3,7.47a12.19,12.19,0,0,0-1.92,6.83c-3,6.4-8.75,10-16.65,12.38L747.09,62.3l-5.55,8.75c.21.43.64.85,1.07,1.49l77.48-1.07c-1.28-1.92-3.63-2.56-4.06-5.76-4.91-1.92-12,0-17.93-.64-5.34-.64-11.31,1.71-13.66-2.35l.43-15.37L801.95,39c1.92-.43,3.41-1.92,5.34-1.92.85-.21.85-.43,1.92-1.07l15.58-5.12L840.58,26l21.34-6.83,27.32-3.84c14.51.43,30.52-1.28,45.25-.43L961.81,20c6.4,0,16.22,6.4,20.92-1.28-.21-1.49,1.07-3.84-.85-4.48,4.91-6.19,14.3-2.35,21.34-4.06h19c.64.21.85.85,1.49,2.35-1.07,2.35-3.84,4.06-6.4,5.55H1016c-5.34,3-16.22,2.77-14.51,11.31l14.73,4.7c-1.28,5.76,1.92,13.66-4.06,18.14l-6.83,3.63c-7.47,3.2-16.86,1.71-18.57,10.67-1.49,1.49-2.77,3-4.27,4.7H1063l-4.91-4.06c-3-1.28-3.41-5.76-6.4-7.47h-21.34c-2.77-4.48-3-11.31-4.91-16.65.64-1.49,2.56-1.71,3.63-3.63V37.54a5,5,0,0,0-.85-3.41c-1.28-.43-.21-2.35-.64-3.2l1.28-1.49,61.9-9.82L1127.44.41c24.33,2.35,51.87-3.63,74.49,2.77,6.4-.43,11.74,4.06,17.5,5.76,1.49,1.07,3.2,1.07,4.91,1.92l1.28,1.07,1.71.43c5.12-5.34,15.15-3.63,22.62-4.91.85,0,1.49,1.28,2.35,1.92l-7.47,8.75-.43,2.13c2.35.64,4.27,1.71,4.27,4.27,0,4.06-1.49,7.26-.85,11.1l.64,1.07c.64,1.07,2.35.21,3.63,1.07.21.21,0,1.49.21,2.35l-3.63,6c-.43,2.35-1.92,5.12-1.92,7.9-1.92,1.49-3.42,3.63-6.62,3.41-4.48-1.92-10.89-1.92-16-.85-2.13,3.41-2.56,8.11-6.83,10.67.43.43-2.77,1.92-7,4.06l10.67.21.43,173.74H1187c.64-13.23-6.4-23.05-11.1-26.47a33.32,33.32,0,0,0-21.34-5.55c-3.63.21-10,3-13.87,5.76-4.48,2.77-7.47,8.11-8.32,10.89l-4.27.21c-2.77-5.55-7.47-11.31-14.3-14.3-16.43-5.55-25.4-3-35,7.47-2.77,5.12-3.41,5.76-5.76,12.17h-2.56c-.85-6.19-4.91-11.53-9.82-15.58-8.11-6-27.11-8.54-34.58-2.13-5.55,4.7-10.67,8.75-13,19.85l-.85,9.18-255.06.85c-.21-5.12-3-15.79-5.76-19-2.77-4.48-6.19-7-11.1-9.82-10.67-3.2-20.7-3.63-28.6,1.28-6.62,3.2-10.89,8.54-13.66,15.58h-6.4s-3.2-8.54-5.76-11.31c-6-6.62-18.78-7.47-26-7.47a44.18,44.18,0,0,0-12.59,3.41,23.45,23.45,0,0,0-7.68,6.19c-6,8.54-6,14.73-6.19,22.41l-55.71.21,1.07-29.45-32-.85v21.77l-59.12,3.63V215.76l-213.22-.43-.21,36.28H196.85V214.48H166.12l-.43,38-45.89.64-1.71-26.68a7.42,7.42,0,0,1-7.47,3.2,34.87,34.87,0,0,1-1.07,18.78c-3.63,10.67-9.6,17.72-20.49,21.56A61.31,61.31,0,0,1,75.2,272.75Z"/><path class="cls-2" d="M47.24,251.83a34.73,34.73,0,0,1-1.49-28.39c2.13-4.48,4.91-9.6,9.6-12.17,4.91-3.84,11.74-5.34,18.14-6.62,7.9-.21,15.58,1.71,22.41,7.47a23.57,23.57,0,0,1,5.55,5.76c3.63,6.19,6.19,12.59,6,20.49-.43,3.84-.85,7.47-2.35,10.46-3.84,11.31-12.17,16.43-23.9,19.42-2.35,0-6.19,1.07-8.75.85C61.11,268.06,51.72,259.94,47.24,251.83Z"/><path class="cls-2" d="M13.3,245.43c-.85-.64-1.71,0-2.77-.64,0-.21-.43-.85-1.49-1.49-.64.21-2.13-.64-2.56-.85-2.77-9.6.43-20.49-1.92-30.31C7.75,195.49.07,176.49,10.1,162l4.48-11.31,2.13-21.56,1.92-13.45,2.77-15.58,4.7-9.82,19-.21c23.05,2.56,49.52-5.34,70,3.84l.21,1.07c3.63,10,2.77,22.2,3.2,31.8-.43,1.71.43,2.35-.21,4.48l-.64,20.06-4.06,37.14-59.34,1.71c-9,15.15-14.3,36.92-22.41,52.93l4.27-13.66c1.07-3,2.35-5.34,1.07-8.32L22.48,222a7.35,7.35,0,0,0-4.27.85c-.43.64-.43,1.49-.85,2.13v18.14c2.56,1.49,5.55-.64,7.68.85-2.77,1.92-7.68-.64-10.67,1.49Z"/><path class="cls-2" d="M110.63,227.93c-5.55-17.08-18.78-28.39-38.63-27.11-4.91.85-14.51,1.71-22,10l4.91-11.1c1.71-.64,4.48-1.49,6.83-2.35,12-2.13,25.61-1.49,35.64,5.34C102.3,204.66,110.84,223,110.63,227.93Z"/><path class="cls-2" d="M110.84,210c-4.06-6.83-12.17-10.67-18.36-16l.43-.43,28.17-1.28,1.07-13c-1.07-1.28.85-3.84-.64-5.12l1.92-55.07-1.28-22c-1.49-1.49-2.35-3.63-3.2-6.19v-.43l14.3-.21V212.78H118.31v11.31C117.88,224.3,113.4,212.14,110.84,210Z"/><polygon class="cls-2" points="146.91 199.33 146.48 90.48 533.23 90.9 532.38 198.47 146.91 199.33"/><polygon class="cls-2" points="594.7 195.06 594.7 85.99 1209.61 85.99 1209.61 193.57 594.7 195.06"/><path class="cls-1" d="M20.77,194c-3.2-12.17-1.49-26.25-.64-38,3-6,2.77-11.74,3.84-17.72l1.92-15.15c.21-1.49.21-4.06,1.71-5.55l1.28-14.09c4.7-4.27,13.66-1.07,20.06-1.92H62.39c5.34,0,10.89-2.35,15.58-.43,3.63,17.5.43,36.5-.21,54.64.21,2.35,0,5.12.21,8.32l-.21,11.1c-1.71,4.91-6.83,7.68-12.59,7.9-3.2,0-6.19.64-9.39.64l-7.9,1.49a14,14,0,0,1-3,3.2c-1.49,1.71-2.35,2.77-3.41,4.06-5.76,2.77-13.45,0-20.28,1.49Z"/><path class="cls-2" d="M24.4,190.58c-3.2-9.6,0-20.49-1.28-30.95,1.28-.43.43-2.35,1.28-3.2.21-1.07,1.07-1.07,2.13-2.13l11.74.64c11.53,0,23.69-2.13,35.64,0,.64,1.49,0,2.35.21,3.84l-.64.85a34.39,34.39,0,0,1-3,18.14c-7.9,4.7-21.56-1.28-28,8.11-.64,1.28-3.63,1.71-4.91,2.56-3.41,3-8.54,1.28-13,2.13Z"/><path class="cls-1" d="M83.73,151.95c0-1.71-1.07-4.27-.64-6.19L82.67,137l1.07-21.34c0-4.27-1.07-9.39,1.71-13.66,5.34-.21,10.67-1.28,15.79-.21l12.17.43c0,8.75,2.77,17.93,1.92,26.47l-.64,23.26C112.33,153.65,85.23,153.87,83.73,151.95Z"/><path class="cls-2" d="M42.11,151.31,27,150c-.21-.85,0-1.71-.21-2.77l2.13-18.57,1.92-17.08c.64-1.71-.21-3.63.64-5.34L32.3,105l41.19-1.07c4.27,4.48,1.28,13.23,2.77,19.85L74.13,149C64.31,151.09,52.79,150,42.11,151.31Z"/><path class="cls-2" d="M88.64,150c-2.13-1.28-2.13-5.55-2.56-8.54l1.07-35.43a2.26,2.26,0,0,1,1.92-1.28l20.92.64c3.63,10.24,2.35,23.69.64,34.36l-.21,8.54a3.11,3.11,0,0,1-1.92,1.71Z"/><path class="cls-2" d="M94.83,77.24,78.61,76.6c4.06-6.62,10-10.46,18.57-8.32l11.74.43,19-.43c19.21,5.12,47.38-10.67,61.26,7.47C158.86,77.46,126.63,76,94.83,77.24Z"/><path class="cls-2" d="M62.82,76c-1.28,0-5.76-2.13-5.55-4.48A16.08,16.08,0,0,0,72,72.76a12.06,12.06,0,0,0,5.34-6c3.84-7.47.21-11.53-4.91-15.15-4.27-2.35-9.6-1.07-14.3.64-4.06,2.77-5.34,8.11-4.7,13.45,0,.85,1.28,2.35,2.13,3.84l-.64.21c-3-1.49-3.2-5.55-3.84-9-.43-4.27,2.35-7.9,6.19-11.1,5.34-2.35,10.89-2.13,16-1.28l6.19,4.48a18.41,18.41,0,0,1,.64,15.37,14.21,14.21,0,0,1-6.62,6.62C70.29,75.54,67.3,76.82,62.82,76Z"/><path class="cls-2" d="M336.23,76l-.21-.21c6.4-12.38,20.92-11.1,34.36-11.1l32.44,1.28c11.31,1.71,25.19-3.63,35,2.77,1.49,2.35,3.84,3.84,6.4,5.76v1.28Z"/><path class="cls-2" d="M199.63,75.11c-.64,1.28-9.18-2.56-9.18-4.06-2.77-3.84-6-9.18-3.84-15.15.85-3.63,4.06-6.19,7-7.68,3.63-1.49,7.68-1.28,11.74-.85,4.91,1.92,8.32,6.4,9.6,12-.64,6-1.28,12.17-6.83,14.3C205.61,75.32,203,75.32,199.63,75.11Z"/><path class="cls-1" d="M189,56.54a12.6,12.6,0,0,1,7-6.62c4.7-1.49,10,.21,14.3,3.63,1.92,2.56,2.35,7,1.92,11.31-1.92,4.06-4.27,7-9.18,8.11-1.92,0-3.84-.21-6.19-.21C188.1,70.84,187.25,61.45,189,56.54Z"/><path class="cls-2" d="M455.11,72.76c-1.28-.21-2.77,0-3.84-.21,4.91-1.28,10.67-3.63,13-9.6.21-4.7,0-9.82-3.63-13-4.7-3-10.24-2.56-15.58-.64a16.48,16.48,0,0,0-5.76,12.81c-.21,0-.43-1.71-1.49-2.13.64-4.7,1.92-11.53,7.47-13.23,4.06-2.35,9.82-1.49,13.87-.64l5.76,4.06A15.59,15.59,0,0,1,463,68.28c-1.49,2.77-4.06,3.84-7.68,4.48Z"/><polygon class="cls-2" points="609.85 72.76 617.11 65.72 683.49 64.22 712.52 64.65 720.41 71.91 609.85 72.76"/><path class="cls-2" d="M322.36,72.55c-2.13-.64-3.63-2.13-5.76-3-3.84-5.76-5.34-12.81-1.07-19a18.85,18.85,0,0,1,19.21-4.27c5.12,2.77,7.47,8.75,6.83,14.94-.21,4.7-3.84,7-7.68,9.39-.64.43-3,2.13-3.84.64.21-.85,1.71-.85,2.56-.85A14.21,14.21,0,0,0,339.22,60a13.56,13.56,0,0,0-4.7-10.24c-3.41-2.13-7.9-1.92-11.74-1.49-4.06,1.92-7.9,5.34-7.9,10.89,0,3.63.64,6.83,4.06,9.6,1.92,1.07,5.12,3.41,8.11,2.77-.85,1.49-2.77.64-4.48,1.07Z"/><path class="cls-2" d="M56.84,67.21a22.33,22.33,0,0,1-1.07-7.68A13.33,13.33,0,0,1,62.6,52.7a11.69,11.69,0,0,1,10.89,2.56,7.39,7.39,0,0,1,2.35,3.2c.64,3.63.64,7-1.92,10C67.3,73.4,61.11,72.33,56.84,67.21Z"/><path class="cls-2" d="M844.21,72.12l-.64-.85c3.2-3.63,6.19-7.68,12.17-5.55,33.08,2.56,66.38-1.49,99.89.21.85,1.49,1.07,3.2,3.2,3.84v1.71c-1.49,0-3.63-.43-4.7.64l-21.34-.21-21.34.21Z"/><path class="cls-2" d="M596.41,70.41c5.76-1.07,9.6-2.77,10.67-5.12a13.91,13.91,0,0,0,.64-13.23c-3.2-3.63-7.9-6.62-13.23-5.34-4.48,1.71-8.11,5.34-9,10,0,3,0,6,2.13,9l4.91,3.84c-2.56,0-5.34-1.92-6.83-3.63q-4.48-7.68,0-16.65a18.76,18.76,0,0,1,16-4.91c4.48,1.07,7.9,4.06,10.24,8.54.64,6,0,12.17-5.12,16-2.35,2.13-6.62,2.35-10,2.35Z"/><path class="cls-2" d="M199,71.05c-3.2-.64-5.34-2.77-7-4.91-1.49-2.35-1.49-4.27-1.49-7.26,1.49-2.13,1.71-5.76,4.91-6.62,3.84-1.07,7.68-1.49,11.1.64a34.13,34.13,0,0,1,3.84,6.19c0,3-.43,6-1.71,7.9C207.1,69.56,202.83,71.27,199,71.05Z"/><path class="cls-2" d="M726.6,68.71c5.34,0,11.31-1.07,14.73-6,1.71-4.48,2.35-8.75,0-12.81-3.41-3.63-8.11-6.62-13.45-5.55-4.48.85-7.9,4.27-9.82,8.32v7.68l3.2,4.7-.43.64-.85-.43c-4.48-4.48-4.27-11.31-1.92-16.65.64-1.92,3-3.41,5.12-4.7,4.48-2.35,10.24-1.71,14.73,0,2.13,1.49,4.7,3.41,5.76,7.26,1.71,1.71.64,5.34,1.07,8.32-2.13,3-3,7.47-7.47,9.39A27.56,27.56,0,0,1,728.74,70C725.32,70,728.31,69.35,726.6,68.71Z"/><path class="cls-2" d="M326.2,69.13a9.79,9.79,0,0,1-8.11-6.4c-1.07-4.7.85-10,4.7-12.59,4.48-.43,8.75-.21,11.31,3.41,2.13,1.92,2.13,5.76,2.13,9.18a15,15,0,0,1-6.83,6.19,15.31,15.31,0,0,0-2.77.21Z"/><path class="cls-2" d="M825.43,69.77c-1.71-2.35-4.06-3.63-5.55-6,.21-1.07-.43-1.07-.64-2.56,3,2.13,4.06,5.55,7.9,7.9Z"/><path class="cls-2" d="M1074.29,71.27l6.62-3,7.26-8.32c32.87.85,65.1-.85,98.39-.64.43,1.49,1.07,2.77,1.49,4.48,1.71,1.28,5.34,7.47,10.89,7.47Z"/><path class="cls-2" d="M449.35,68.92c-1.92-1.28-3.84-2.13-4.91-3.84a18.18,18.18,0,0,1-.64-10.67,12.71,12.71,0,0,1,11.53-4.48c2.77,1.49,5.76,3.2,6.62,6.83a24,24,0,0,1-.64,6.83A12.26,12.26,0,0,1,450,68.92Z"/><path class="cls-2" d="M966.51,68.92l-.64-1.71c1.28-.64,2.77,1.07,4.48,1.07C969.71,69.56,967.79,68.28,966.51,68.92Z"/><path class="cls-2" d="M972.06,68.92l9-4.48v.85c-1.49,2.35-5.34,3.84-8.54,3.63Z"/><path class="cls-2" d="M1201.93,67.64c-5.76-1.28-12.17-7-10-9.18,3.84,4.91,9.82,8.75,16.86,6.83,5.76-2.13,7.68-7.26,8.32-12.38-1.28-5.76-3.63-7.9-7.68-9.18-4.48-1.49-8.75-2.13-12.81.85-2.35,2.13-5.12,6-5.12,10H1191c-2.13-2.35-.43-5.76,1.28-8.75,1.28-1.71,7-5.76,10.67-5.76,4.27-.21,7.26.85,11.31,3.2,4.27,3.63,5.76,9.39,3.42,15.79-1.92,4.48-5.34,7.68-10.46,8.54Z"/><path class="cls-2" d="M588.08,61.88c-1.71-3.63,0-6.62,1.92-9.6,2.13-3,6.83-3.63,10.67-3.2,2.13.64,4.06,3.2,5.55,6,.43,1.92,0,4.06,0,6.4a8,8,0,0,1-5.55,5.76c-1.49.85-3.42.85-6.19.21C592.14,67.43,589.36,63.58,588.08,61.88Z"/><path class="cls-2" d="M829.48,66.78c-2.56-.43-4.7-2.77-6.19-5.55-.21-1.92-.85-2.77-.64-4.7.64-2.77,1.92-5.76,5.12-7.47a13.54,13.54,0,0,1,10.46.85c3,2.35,3.2,5.34,3.2,9.6-.21.21-1.49,3.63-2.35,4.91C837.8,67.43,832.68,67.43,829.48,66.78Z"/><path class="cls-2" d="M1072.37,66.14h-.21c1.28-1.07,5.76-1.92,7.9-3.2a12,12,0,0,1-7.47,3.2Z"/><path class="cls-2" d="M727.67,66.14a33.88,33.88,0,0,0-3.84-1.71c-1.92-3-3.42-6.19-2.77-10.67a10,10,0,0,1,5.34-6.19c3.84-1.92,8.75-.43,11.53,2.56,2.13,3.41,3.41,7.47.43,11.74a17,17,0,0,0-2.77,2.77C733,66.14,730.66,65.93,727.67,66.14Z"/><path class="cls-2" d="M110,65.72c-7.68-2.13-18.57.85-24.33-3.84-.21-3.63-1.49-8.32-4.06-11.31,2.56-2.35,7.68-.64,11.31-.43l2.35,12.59h54.85c1.71-.64,3.2.85,5.55.21,2.35-2.56,2.13-7.47,3.2-12.17,0-.64,1.92-.85,2.13-1.49l23.48.85c.21,2.13-2.13,3.63-1.49,6.4-.64.43-.85,1.71-1.71,2.35-.64.85.21,2.56-1.07,3.84-16.86,1.49-35.86,3.2-52.93,1.71Z"/><path class="cls-2" d="M972.06,65.29c-3.2,0-5.76-1.92-8.11-4.48-1.28-1.92-1.49-4.48-1.07-7.68,1.28-3.63,3.63-4.7,7.26-6.19a12.9,12.9,0,0,1,7.47,1.71c2.35,2.77,3.84,5.34,3.2,8.75,0,1.07-.64,2.35-.85,3.63C977.61,63.16,975.68,64.86,972.06,65.29Z"/><path class="cls-2" d="M1063.19,65.5a16.7,16.7,0,0,1-7-8.54c-1.07-3.2-1.28-9,1.71-11.31a20.73,20.73,0,0,1,13.66-5.76c5.55.21,10.89,2.35,13.87,7.9.85,2.56.64,6.19.64,8.75-.43,1.07-1.71,1.07-2.77,1.71,1.92-5.12-.21-11.31-4.48-14.51-3.41-2.77-8.54-2.35-13.66-.85-3.63,1.71-7.26,4.7-7.9,9.39-.85,5.12,3,8.32,6,11.53.85.64,1.71.64,2.35,1.49Z"/><path class="cls-2" d="M1194.88,56.11a10.21,10.21,0,0,1,4.91-10.67c5.55-1.71,8.54-.64,12,2.35,1.07,1.07,2.56,3.42,2.35,5.12,0,2.35,0,4.48-1.28,6.62-1.07,1.92-3.63,3.2-6.19,3.84a11.12,11.12,0,0,1-5.34,0C1197,62.09,1195.74,58.46,1194.88,56.11Z"/><path class="cls-2" d="M871.1,62.94l-12.17-.85V60.81L898,59.1c2.13.85,3.63,0,5.34-.85l11.1-16.86c1.92-.85,4.27,0,6.4,1.49.43.43.64.85,1.28,1.49,3,0,4.06-2.77,7-3.63a17.26,17.26,0,0,1,8.32-7.68c21.56-1.28,41.41-1.71,63.39,0l11.1,4.7-2.13,10.67c-2.13,3.63-7.68,4.27-12,5.12-1.07,0-1.71-.85-3-1.49l-7.26-17.5c-1.28-.85-2.35-.43-3.84,0l-.43.64L966.51,39l-8.32,3a7.32,7.32,0,0,0-5.34,6.4c0,3.63-1.07,6.62-1.07,10.46-26.25,4.48-53.15,1.49-79.83,3.84Z"/><path class="cls-2" d="M1061.06,57a19.27,19.27,0,0,1,.43-7.68,11.14,11.14,0,0,1,10-5.55c2.56.43,5.34,1.07,7,4.06,1.28,4.48,1.92,9-1.07,12.81a16.34,16.34,0,0,1-8.32,2.35C1065.75,62.94,1062.55,59.53,1061.06,57Z"/><path class="cls-2" d="M289.49,62.73c-1.92-.43-3-1.49-4.48-3-1.07-.85-.43-2.13-.64-3.63,5.55-2.35,12.17,1.49,16-4.06.85-1.28-.43-3.63.85-4.48h11.31c-2.13,4.48-5.12,9-5.76,14.51Z"/><path class="cls-2" d="M347.54,62.3l-.85-.43c.21-5.12-2.13-9.18-3-14.3a8.31,8.31,0,0,1,6.4.21c.85,4.27,0,9.18,4.27,11.53l59.76-.21,5.76-7.68c.43-.85.21-1.71.85-3l15.37-.21-3,13-57.2.21Z"/><path class="cls-2" d="M621.38,61.88c-1.07-.64-2.77.21-4.06-1.07.64-5.34-2.13-8.75-3-13.23L637,46.72l1.71.85,3,11.31c.21.85,1.49.85,2.35,1.71l1.28-.64L641,47.58l13.45.64,1.92,12.38-18.57.85-3.63-13-.85-.64-1.28.43L631,49.28l4.7,12.17Z"/><path class="cls-2" d="M791.7,60.81l-.85-.85a38.3,38.3,0,0,1,18.36-.64l-1.07,1.07Z"/><path class="cls-2" d="M844.21,60.81c0-2.13-.43-4.91-.43-7.26a14.81,14.81,0,0,0-9-8.11c-5.34,0-11.1,1.92-13.87,6.83-.21,2.13-2.56,3.84-2.13,6.83l-.43-.21c-1.92-3.41.21-6.4,1.92-10,4.06-3.84,9.82-7.68,16.65-4.91,3.84,1.49,7.68,3.84,9,8.32A12.69,12.69,0,0,1,844.21,60.81Z"/><path class="cls-1" d="M650.62,60.38l-5.12-12,1.71-.21c.64,1.07,1.28,1.92,2.35,3.42l2.77,6.62c-.64.21-.21,2.13-1.49,2.13Z"/><path class="cls-2" d="M666,61.88l.85-1.49L708,56.75l5.34-11.53h.85c0,2.35-2.35,3.84-2.56,6.4-.64,2.35-1.49,4.27-1.49,7.47C704,60.81,673,61.24,666,61.88Z"/><path class="cls-2" d="M221,59.31c-1.28-.21-1.92-1.07-2.77-2.35,0-2.56-1.07-6.4-4.06-8.32l28.39-.21c-.21,3.84-2.13,8.54-6.4,10.89Z"/><path class="cls-2" d="M119.16,59.1l-20.92-.85-.43-8.11,55.71.43c1.07,2.35-.21,4.91-1.49,7.47-9.6,2.56-21.34-.43-32.23,1.07Z"/><path class="cls-2" d="M472.83,59.1,471.33,58a9.6,9.6,0,0,0-3.2-9.6l27.32.21c1.49,1.49-.64,4.06-1.92,5.34l-6.4,3.41Z"/><path class="cls-2" d="M984.22,59.1c0-3.63.43-8.54-2.77-11.31a16.16,16.16,0,0,0-12.17-3.41c-3,1.07-7.68,3-9.18,7.26,0,2.13-1.07,3.84-1.07,6.4-.85-3.41-.64-7.47,1.49-10.46,3.2-5.76,10.89-6,17.08-4.27,3.84,1.49,8.11,5.12,8.54,10.24C985.5,56.11,987,58,984.22,59.1Z"/><path class="cls-2" d="M568,58c-3-1.07-6.83,0-8.32-3.63-.85-1.71-1.07-3.84-2.56-6,7-2.13,18.36-1.71,26.68-.85.21,1.07-2.13,1.07-2.13,3,0,1.71-2.13,3-1.49,4.91L578.91,57A58.84,58.84,0,0,1,568,58Z"/><polygon class="cls-2" points="1159.1 56.76 1105.74 55.61 1107.03 53.3 1142.45 52.72 1159.96 54.45 1159.1 56.76"/><path class="cls-2" d="M861.92,56.11c-1.49-.64-3.63,0-5.12-.21-.85-.64-1.07-2.35-1.92-3.63l-6-10.67a23.83,23.83,0,0,1-3.84-2.13c-8.11,0-17.5-1.49-25.61,2.13-.85,1.49-3,3-3.2,5.76-2.13,1.07-2.35,4.27-3.63,5.76-7,.43-14.51,2.77-21.56,1.28a5.69,5.69,0,0,0-1.49-3c7-6,16.86-8.54,25.4-12.17,6.62-4.06,14.09-2.56,21.13-4.06l21.56,1.49c.64,0,.64,1.28,1.28,1.28L866.4,55C865.34,56.11,863.42,55.9,861.92,56.11Z"/><path class="cls-2" d="M371.23,55.9a7,7,0,0,1-2.77-.85c-3.41,1.07-6.4,0-10.67.43-2.35-1.49-2.56-5.34-3.2-8.11,20.06-1.92,40.55,0,60.19,1.07.64,3-2.13,3.63-3.84,5.55-5.12,2.56-10-.21-15.15,1.49H383Z"/><path class="cls-2" d="M670.47,55.9l-9-.64c-.85-3-2.13-5.12-1.71-8.32l.43-.64,19-.43,18.14.43c3-.43,6,.43,9,0,.21.64,0,1.49.21,2.13-2.13,2.13-2.35,4.7-5.34,6Z"/><path class="cls-2" d="M1039.07,55.9c-1.92-.64-4.27.64-6.19-.85-1.71-3-1.07-6.4-3-9.82l.43-1.28,11.53-1.71,11.53.64.21.43a18.24,18.24,0,0,0-1.92,5.12c-1.28.85-.43,3.2-.64,4.7l-1.28,1.49c-3.41.43-6.4,1.28-10.24,1.28Z"/><path class="cls-2" d="M1098.2,55.9c-2.13-.43-4.7,0-7.26-.43-1.71-3.41.64-9.18-3.2-12.17,3.2-1.71,9-.85,12.38,1.07l.43,10.67c0,.43-1.28.85-1.71.85Z"/><path class="cls-2" d="M750.72,55.47l-3.63-9.6.64-.64,18.36-.43c.85.64.85,3,.43,4.48C762.67,52.7,756.7,54,750.72,55.47Z"/><path class="cls-2" d="M1163.3,55.47l-.85-.21c.64-1.71,2.35-2.35,1.92-4.7,0-.85-1.28-1.49-1.28-3,.64-.64,0-2.35.21-3.63L1179.09,42l10.46-.43.21.64-5.12,12.38Z"/><path class="cls-2" d="M873.23,55.26l-.64-2.13c-3.84-3.84-6-10.67-7.68-15.37h24.55L904,39a9.47,9.47,0,0,0,2.77.43c1.71,4.48-2.13,8.11-4.48,12C895,58,882.84,53.77,873.45,55.26Z"/><path class="cls-2" d="M1236.93,52.27l-12.17-.21-6.19-10.46h27.11l-3.84,9.82C1240.77,52.27,1238.64,52.06,1236.93,52.27Z"/><path class="cls-2" d="M288,51.63a10.86,10.86,0,0,1-3-.85c1.92-1.49,5.76,0,7.9.43C291.41,51.42,289.7,51.2,288,51.63Z"/><path class="cls-2" d="M1109.51,51.42c-1.28-.64-2.56-.21-4.06-.85,0-2.35-1.28-4.27-1.07-6.83l55.49.21c0,1.92,0,3.84-1.28,5.34Z"/><path class="cls-2" d="M35.07,47.58c-1.49-1.28-3.2,0-5.12-1.28-.64-1.49,0-3.2-.21-4.91l.64-.64C57.91,33.92,88,35.41,111.48,17.91l.64.64C104,26,90.78,30.93,93.34,44.8L80.1,46.08l-.21.64c-2.77,1.07-3.41-1.92-6.4-1.49-.43,0-.43-.43-1.71-.85-12.17-.64-23.69,4.06-36.5,3.2Z"/><path class="cls-2" d="M123.43,46.94l-24.76-.85,1.07-10.46,52.93-1.49,1.28.43c1.07,3,0,6.83.64,10.24-9.6,3.41-20.28,0-30.73,2.13Z"/><path class="cls-2" d="M210.73,46.08c-14.94-6.62-33.72,2.35-50.58-.85,0,0-2.35-11.74-2.56-13.23,6,.21,14.73.85,22.41.64,16-.85,31.8-2.35,47.81-4.06l.21-1.71-.85-.85-17.29.21h-2.35L193.87,15.77l-4.48-4.06c2.13-.64,3.41.85,5.12.85a25.05,25.05,0,0,0,7.68,2.35L213.72,20l14.09,5.34c1.92-.43,3.41,1.71,5.76,1.92.64,1.07,1.92,3.41,4.27,3,.64,0,2.13-.21,3,.64,1.92,3.63.85,7.47,1.07,11.53-.21,0-1.07,1.28-2.35.85-9.39,1.92-20.7-1.71-28.39,2.77Z"/><path class="cls-2" d="M412.43,44.37l-39.7-1.92h-17.5l-.64-.43c.85-4.27,3-9.6,7-12l52.29,1.49c1.07,1.71,3.84,0,5.34,1.71l-.64,9A9.12,9.12,0,0,1,412.43,44.37Z"/><path class="cls-2" d="M441.45,44.37l-18.14-1.07c-.21-.43,0-1.71-.21-2.35,1.49-2.35.85-6.19,1.07-9.18l18.78-3.2L450,25c.43-1.71-.64-3.2-.64-4.91l-6.62-6-9.6-2.77L421,8.94c-3-.21-6.83,0-9.6-.85L381.9,6.38V5.53c23.9-2.35,47.6.21,71.07,11.74l9,6.83L476,30.71c2.56,3,9.39,3.84,11.31,7.26L487.13,39c-.85.85-2.77,0-3.63,1.49,0,.85-.85,1.07-1.07,2.35a11,11,0,0,1-2.35.43c-12.81,3-22.84-5.34-34.58-1.07-.43.85-2.77.85-3.84,2.13Z"/><path class="cls-2" d="M558.2,43.95c4.27-4.06,10-5.55,15.79-8.32l25-5.34c13.87-1.49,28.17,0,42.9.64l12.59,1.71c1.71-.85,1.49-4.06,4.27-4.7l.64.64c-1.07,3.2-4.7,6.62-5.34,10.67-.64.64,0,1.49-.21,2.35-12.81,3.2-29.45,0-43.11,2.13-16.22-6.83-34.36,1.49-52.08.21Z"/><path class="cls-2" d="M299.94,43.09c-.85-.21-1.71,0-2.56-.21l-.21-.85,5.55-10.46c18.14-.85,36.71-7.47,54.64-3L352,35.2c-.43,2.35-1.92,3.41-1.49,6.19l-1.28,1.07c-9.18,3-17.72-4.06-26.68,0Z"/><path class="cls-2" d="M664.07,42.45c-1.49-.85-2.56-.21-4.27-.85.21-2.56.43-6.19,3.2-7.68h14.73L705,31.57c3-1.28,6.83-2.35,9.6,0,.85,1.49,0,3-.64,4.06l-5.12,6-40.55.64C667.06,42.24,665.56,42.45,664.07,42.45Z"/><path class="cls-2" d="M746.67,42.45c-1.07-.85-2.13-.21-3.63-.43-.64-.43-.85-.64-1.49-1.92-6.83-3.2-16.22-3.84-22.62,1.49-.43,0-1.49.43-2.35.43-1.49-3,3.63-6.62,5.12-9.39V30.93c0-.85-1.49-.21-1.49-2.13,11.74-3.84,25-1.71,36.71,1.49.85.64,2.35,1.07,3.2,1.92l13.23,3-3.41,6.4L756.06,42c-3,.21-6,.43-9.18.43Z"/><path class="cls-2" d="M290.77,40.75c0-2.13,1.92-3,3-4.7a2.13,2.13,0,0,1,2.35-.43C295.25,38,293.75,40.53,290.77,40.75Z"/><path class="cls-2" d="M1083.9,39.25c-5.55-3.84-12.38-4.06-19.21-2.56-9.6,3.2-19.85,1.71-29.88,1.71-1.07-1.49-2.77-2.77-2.13-5.12l15.58-3L1070,26.45l15.58-3c7.9.64,14.51-3.2,20.92-7.68l9.6-4.91c-.21,2.35-1.92,3-4.27,3.41-3.63,3.63-11.31,5.34-11.74,12.17V38Z"/><path class="cls-2" d="M1114.42,39.25l-9.18-.21c-1.07,0-1.07-1.49-2.13-2.35,0-2.77.43-5.76.64-9,17.93,0,35.22,1.71,53.36-.43l1.71,1.07c1.07,3,.64,6.19,1.07,9.6C1145.58,40.11,1129.57,38.4,1114.42,39.25Z"/><path class="cls-2" d="M1165.22,39c-3-3.84-1.28-9.6-1.92-14.3,16-1.28,35.43,2.56,50.8-2.13l18.14.85c.21-.85,1.07-1.07,1.07-2.56l10,6.19-.21,8.11c-6,2.56-12,.43-17.72,1.71L1214.73,38c-6.62-3.84-14.94.64-21.77-1.71Z"/><path class="cls-2" d="M874.73,33.7a10.53,10.53,0,0,1-4.91-1.28l-.21-.85c12.17-5.12,28-3,41.41-3.84,1.07,0,1.92,0,2.35,1.49-4.91,3.41-12.59,2.13-19.21,4.06Z"/><path class="cls-2" d="M857.65,32.21l-13.45-2.13C851.46,26,861.5,23.24,869.82,22l1.49,1.28c-1.49,3.84-6,6.19-9.18,9h-4.48Z"/><path class="cls-2" d="M105.08,31.35l-.64-.64L119,18.12c9.18-2.56,20.49-2.35,30.73-1.49.43.43.85.43,1.28,1.49l.64,10.24a9.33,9.33,0,0,1-1.49,1.71Z"/><path class="cls-2" d="M684.56,30.07l-17.07-.85-.85-1.28c3.2-4.06,7.68-7.26,12.38-10.89l26,.85c1.49.21,1.49,1.71,1.49,3.2l-4.7,6.19Z"/><path class="cls-2" d="M932.14,29.22l-.21-.43c1.07-2.77,5.76-4.7,6.4-8.75l15.79,3.2c.85.21.85.64,1.92.85l9.82,2.35c-10.89,2.35-21.34,1.49-33.08,2.77Z"/><path class="cls-2" d="M166.12,28.58c-1.28-.64-2.77-.21-3.63-1.49-.85-3.2-.64-6.83-.21-10.46,7.68-.43,17.93-3.42,25.4.43l9.82,7.68A3.25,3.25,0,0,1,199.63,26V27.3Z"/><path class="cls-2" d="M397.48,27.3l-28.6-2.56,13.23-12.81,17.29-1.71,20.49,3.2c.85,0,.43,2.13,1.49,2.77L418,27.3c-2.56,1.07-4.7-1.07-7.68,0-2.56-1.07-5.55,1.49-8.32-.43-1.07,1.07-2.56.21-4.06.43Z"/><path class="cls-2" d="M426.09,27.3a2.32,2.32,0,0,1-1.92-.85l2.56-10,1.07-1.07,15.79,5.34a5.1,5.1,0,0,1,.64,3.2,5.57,5.57,0,0,0-3.63,1.49Z"/><path class="cls-2" d="M478.59,27.3l-9-4.7a4.08,4.08,0,0,1-.21-4.7l20.06.85.21.85L482,25c-.85.43-1.07,1.28-1.71,2.13Z"/><path class="cls-2" d="M646.35,27.3l.21-1.07,14.73-6.83c1.28,0,1.92-1.49,4.27-1.49l-.21.85C660.23,23,654.89,25,648.49,27.3Z"/><path class="cls-2" d="M993.4,27.3l-9.18-3.2a13.83,13.83,0,0,1,3.63-3.41,5,5,0,0,0,0-4.91l.43-.85,22.2-.85a7.31,7.31,0,0,0,3.84.64c-4.48,4.48-11.53,2.35-15.79,6.19L996,27.3C995.32,27.73,994.68,27.3,993.4,27.3Z"/><path class="cls-2" d="M923,26.45V24.52c1.28-.64,2.13-.43,3.63-.43l.21.43c-.21.85-1.71,2.35-3.2,1.92Z"/><path class="cls-2" d="M714,25.38c-1.28-.64-3,.21-3.63-.85a30.11,30.11,0,0,0,.64-9.82c.85.21,1.07.85,2.35,1.49h1.28L727,20.68c.64.21,1.07.43,1.49,1.71Z"/><path class="cls-2" d="M1128.72,25.38l-21.13-2.77c9.18-6.19,16-15.15,28-14.51l20.06.85c.85,4.27,3.2,8.75,2.77,13.66Z"/><path class="cls-2" d="M878.14,25A8.25,8.25,0,0,1,882.63,20l30.73,1.07-.21.85-11.53,1.92Z"/><path class="cls-2" d="M236.55,24.1c-1.71-.64-1.92-2.13-3.84-2.56,1.28-1.28,4.48-.64,6.62-.85l.64.43C239.54,23,238.47,24.1,236.55,24.1Z"/><path class="cls-2" d="M358.21,23.24,367,15.56l9-7h1.71c.64,3.42-3.41,5.76-5.55,8.54C368.88,20.26,363.76,23.46,358.21,23.24Z"/><path class="cls-2" d="M1184.64,21.54,1166.92,20c.21-.85-1.28-2.35,0-3-.21-2.77-.21-5.12-.21-8.11l20.06-.85c.85.64,2.13,1.28,3.2,1.92,4.91,2.35,10.67,5.76,14.51,10.67Z"/><path class="cls-2" d="M1211.32,19.4l-10.89-8.32-8.32-6c4.48-1.92,9.6,2.13,13.87,2.77l6.19,2.35,5.76,2.56a4.22,4.22,0,0,0,3,1.07l5.34,3.42Z"/><path class="cls-2" d="M1237.57,17.27l-4.91-3c2.77-1.71,6.62-1.71,10.46-1.71l.21.64C1242.27,14.28,1240.35,17.27,1237.57,17.27Z"/><rect class="cls-3" x="128.25" y="216.9" width="3.1" height="31.9"/><rect class="cls-3" x="153.6" y="214.16" width="3.1" height="33.77"/><polygon class="cls-4" points="166.99 167.65 166.99 114.61 178.41 114.61 199.94 151.06 199.94 114.61 210.71 114.61 210.71 167.65 199.44 167.65 177.75 131.2 177.75 167.65 166.99 167.65"/><path class="cls-4" d="M230.48,141.17q0,8.76,3.9,13.61t10.88,4.84q7.06,0,11-4.84t3.92-13.61q0-8.74-3.92-13.6t-11-4.84q-7,0-10.88,4.83t-3.9,13.61Zm-11.12,0q0-12.85,7-20.39t18.89-7.55q11.87,0,18.92,7.56t7,20.38q0,12.83-7,20.39t-18.92,7.56q-11.89,0-18.89-7.56T219.35,141.17Z"/><path class="cls-4" d="M290.76,137.8h12.83q4.17,0,6.13-1.7c1.3-1.13,2-2.9,2-5.33a6.86,6.86,0,0,0-1.91-5.24c-1.27-1.19-3.17-1.78-5.68-1.78H290.76V137.8Zm-10.92,29.85v-53h25.73q8.67,0,12.85,3.71t4.18,11.35a14.92,14.92,0,0,1-2,8.1,10.21,10.21,0,0,1-5.85,4.43,8.84,8.84,0,0,1,4.93,3.75q1.46,2.53,1.67,7.86l.22,6.26v.22c.06,3.16.75,5.09,2.05,5.75v1.62h-12a10.37,10.37,0,0,1-.87-2.75,25.79,25.79,0,0,1-.37-3.91l-.15-5.58c-.12-3.28-.74-5.51-1.86-6.65s-3.13-1.73-6-1.73H290.76v20.63Z"/><polygon class="cls-4" points="332.49 167.65 332.49 114.61 343.41 114.61 343.41 157.85 369.3 157.85 369.3 167.65 332.49 167.65"/><path class="cls-4" d="M375.27,167.65v-53H413.8v9.22H386v11.31h25.38v9.07H386v13.64H415.1v9.8Zm29.86-71L393.86,110h-5.11l7.09-13.32Z"/><polygon class="cls-4" points="423.42 167.65 423.42 114.61 434.84 114.61 456.38 151.06 456.38 114.61 467.15 114.61 467.15 167.65 455.87 167.65 434.19 131.2 434.19 167.65 423.42 167.65"/><path class="cls-4" d="M475.65,151.26h10.77a9.08,9.08,0,0,0,3.56,6.47q3,2.1,8.53,2.1,4.76,0,7.17-1.7a5.69,5.69,0,0,0,2.41-5q0-4.83-13.87-8l-.32-.07-1.12-.26c-5-1.08-8.48-2.29-10.58-3.64a11.62,11.62,0,0,1-4.29-4.84,16.28,16.28,0,0,1-1.48-7.18q0-7.74,5.26-11.87t15.19-4.12q9.29,0,14.53,4.39c3.49,2.94,5.34,7.06,5.53,12.39H506.47a7.69,7.69,0,0,0-3-5.86q-2.67-2-7.6-2a11.16,11.16,0,0,0-6.61,1.67A5.53,5.53,0,0,0,487,128.5c0,2.81,3,4.9,9,6.31l3.82.9c3.86,1,6.61,1.76,8.22,2.3a25.49,25.49,0,0,1,4.24,1.84,12.1,12.1,0,0,1,4.86,4.77,14.64,14.64,0,0,1,1.62,7.12q0,8.28-5.58,12.83t-15.73,4.56q-10,0-15.7-4.65T475.65,151.26Z"/><polygon class="cls-4" points="626.9 168.44 626.9 124.85 611.16 124.85 611.16 115.37 653.46 115.37 653.46 124.85 637.83 124.85 637.83 168.44 626.9 168.44"/><path class="cls-4" d="M670.68,138.58h12.84q4.17,0,6.14-1.7c1.3-1.13,2-2.9,2-5.34a6.86,6.86,0,0,0-1.91-5.24c-1.27-1.19-3.17-1.78-5.68-1.78H670.68v14.06Zm-10.92,29.86V115.37H685.5q8.67,0,12.85,3.71t4.18,11.35a14.93,14.93,0,0,1-2,8.11,10.22,10.22,0,0,1-5.85,4.43,8.84,8.84,0,0,1,4.93,3.75q1.46,2.53,1.67,7.86l.22,6.26v.22c.06,3.16.75,5.09,2.05,5.76v1.62h-12a10.38,10.38,0,0,1-.87-2.76,25.77,25.77,0,0,1-.37-3.91l-.15-5.58c-.12-3.28-.74-5.51-1.86-6.65s-3.14-1.73-6-1.73H670.68v20.64Z"/><path class="cls-4" d="M732.19,126l-7.36,22.6h14.74L732.19,126Zm-6.35-10.63h12.61l19.14,53.07H746.13l-3.6-10.91H722l-3.49,10.91H707Z"/><polygon class="cls-4" points="763.07 168.44 763.07 115.37 774.49 115.37 796.04 151.84 796.04 115.37 806.82 115.37 806.82 168.44 795.54 168.44 773.84 131.97 773.84 168.44 763.07 168.44"/><path class="cls-4" d="M815.33,152H826.1a9.09,9.09,0,0,0,3.57,6.47q3,2.1,8.54,2.1,4.76,0,7.17-1.7a5.7,5.7,0,0,0,2.41-5q0-4.83-13.87-8l-.32-.07-1.12-.26c-5-1.08-8.49-2.29-10.59-3.64a11.62,11.62,0,0,1-4.29-4.85,16.28,16.28,0,0,1-1.48-7.18q0-7.75,5.26-11.88t15.2-4.12q9.3,0,14.54,4.39c3.49,2.94,5.34,7.06,5.54,12.4H846.17a7.69,7.69,0,0,0-3-5.87q-2.68-2-7.6-2a11.17,11.17,0,0,0-6.62,1.67,5.53,5.53,0,0,0-2.32,4.77c0,2.82,3,4.91,9,6.31l3.83.9c3.86,1,6.62,1.76,8.23,2.3a25.54,25.54,0,0,1,4.24,1.85,12.1,12.1,0,0,1,4.86,4.77,14.64,14.64,0,0,1,1.62,7.12q0,8.28-5.58,12.84t-15.74,4.56q-10,0-15.71-4.65T815.33,152Z"/><path class="cls-4" d="M878,139.94h10.55q4.28,0,6.24-1.82c1.29-1.22,1.94-3.16,1.94-5.85a7.9,7.9,0,0,0-1.91-5.73,7.68,7.68,0,0,0-5.69-1.94H878v15.35Zm-.07,9.62v18.88H867V115.37h23.6q8.36,0,12.67,4.34t4.3,12.74q0,8.21-4.22,12.66c-2.8,3-6.83,4.45-12,4.45Z"/><path class="cls-4" d="M925,141.95q0,8.76,3.9,13.62t10.89,4.85q7.07,0,11-4.85t3.92-13.62q0-8.74-3.92-13.6t-11-4.85q-7,0-10.89,4.83T925,141.95Zm-11.13,0q0-12.86,7-20.41T939.83,114q11.88,0,18.93,7.56t7,20.39q0,12.84-7,20.41t-18.93,7.56q-11.9,0-18.91-7.56T913.91,141.95Z"/><path class="cls-4" d="M985.36,138.58H998.2q4.17,0,6.14-1.7c1.3-1.13,2-2.9,2-5.34a6.86,6.86,0,0,0-1.91-5.24c-1.27-1.19-3.17-1.78-5.68-1.78H985.36v14.06Zm-10.92,29.86V115.37h25.74q8.67,0,12.85,3.71t4.18,11.35a14.93,14.93,0,0,1-2,8.11,10.22,10.22,0,0,1-5.85,4.43,8.84,8.84,0,0,1,4.93,3.75q1.46,2.53,1.67,7.86l.22,6.26v.22c.06,3.16.75,5.09,2.05,5.76v1.62h-12a10.37,10.37,0,0,1-.87-2.76,25.77,25.77,0,0,1-.37-3.91l-.15-5.58c-.12-3.28-.74-5.51-1.86-6.65s-3.14-1.73-6-1.73H985.36v20.64Z"/><polygon class="cls-4" points="1038.12 168.44 1038.12 124.85 1022.38 124.85 1022.38 115.37 1064.67 115.37 1064.67 124.85 1049.04 124.85 1049.04 168.44 1038.12 168.44"/><path class="cls-4" d="M1111.7,126l-7.36,22.6h14.74L1111.7,126Zm-6.35-10.63H1118l19.14,53.07h-11.46l-3.6-10.91h-20.57L1098,168.44h-11.5Z"/><path class="cls-4" d="M1153,158.86H1166q4.58,0,6.67-1.66c1.39-1.11,2.09-2.84,2.09-5.23s-.69-4.26-2.05-5.35S1169,145,1165.89,145H1153v13.87Zm0-23h12.46c2.69,0,4.66-.47,5.92-1.39a5.1,5.1,0,0,0,1.87-4.38,4.85,4.85,0,0,0-1.82-4.23c-1.22-.87-3.22-1.32-6-1.32H1153v11.32Zm-10.45,32.53V115.37h25q8.15,0,12.42,3.44t4.27,10a13.18,13.18,0,0,1-1.59,6.74,10.44,10.44,0,0,1-4.76,4.17,12.73,12.73,0,0,1,6.14,4.78,13.81,13.81,0,0,1,2,7.76q0,7.75-5,12t-14.31,4.22Z"/><path class="cls-1" d="M75.08,258.3A21.28,21.28,0,1,0,53.8,237,21.32,21.32,0,0,0,75.08,258.3Z"/><path class="cls-1" d="M726.39,262.4a16.45,16.45,0,1,0-16.45-16.45A16.48,16.48,0,0,0,726.39,262.4Z"/><path class="cls-1" d="M1158.7,263.09a15.61,15.61,0,1,0-15.61-15.61A15.64,15.64,0,0,0,1158.7,263.09Z"/><path class="cls-1" d="M665,262.4a16.45,16.45,0,1,0-16.45-16.45A16.48,16.48,0,0,0,665,262.4Z"/><path class="cls-1" d="M1100.52,263a15.61,15.61,0,1,0-15.61-15.61A15.64,15.64,0,0,0,1100.52,263Z"/><path class="cls-1" d="M1043.28,263a15.61,15.61,0,1,0-15.61-15.61A15.64,15.64,0,0,0,1043.28,263Z"/><path class="cls-5" d="M74.9,253.91A17.21,17.21,0,1,0,57.69,236.7,17.24,17.24,0,0,0,74.9,253.91Z"/><path class="cls-5" d="M726.27,259.06a13.3,13.3,0,1,0-13.3-13.3A13.33,13.33,0,0,0,726.27,259.06Z"/><path class="cls-5" d="M1158.59,259.78A12.62,12.62,0,1,0,1146,247.16,12.65,12.65,0,0,0,1158.59,259.78Z"/><path class="cls-5" d="M664.92,259a13.3,13.3,0,1,0-13.3-13.3A13.33,13.33,0,0,0,664.92,259Z"/><path class="cls-5" d="M1100.42,259.71a12.62,12.62,0,1,0-12.62-12.62A12.65,12.65,0,0,0,1100.42,259.71Z"/><path class="cls-5" d="M1043.18,259.71a12.62,12.62,0,1,0-12.62-12.62A12.65,12.65,0,0,0,1043.18,259.71Z"/><path class="cls-6" d="M664.65,272.55a27,27,0,1,0-27-27A27.05,27.05,0,0,0,664.65,272.55Z"/><path class="cls-6" d="M1100.16,272.66A25.62,25.62,0,1,0,1074.55,247,25.66,25.66,0,0,0,1100.16,272.66Z"/><path class="cls-6" d="M1042.92,272.66A25.62,25.62,0,1,0,1017.31,247,25.66,25.66,0,0,0,1042.92,272.66Z"/><path class="cls-6" d="M726.86,273.34a27,27,0,1,0-27-27A27.05,27.05,0,0,0,726.86,273.34Z"/><path class="cls-6" d="M1159.13,273.38a25.62,25.62,0,1,0-25.62-25.62A25.66,25.66,0,0,0,1159.13,273.38Z"/><path class="cls-6" d="M664.71,270.66a24.83,24.83,0,1,0-24.83-24.83A24.88,24.88,0,0,0,664.71,270.66Z"/><path class="cls-6" d="M1100.19,270.86a23.56,23.56,0,1,0-23.56-23.56A23.6,23.6,0,0,0,1100.19,270.86Z"/><path class="cls-6" d="M1043,270.86a23.56,23.56,0,1,0-23.56-23.56A23.6,23.6,0,0,0,1043,270.86Z"/><path class="cls-6" d="M726.85,271.46A24.83,24.83,0,1,0,702,246.63,24.88,24.88,0,0,0,726.85,271.46Z"/><path class="cls-6" d="M1159.16,271.65a23.56,23.56,0,1,0-23.56-23.56A23.6,23.6,0,0,0,1159.16,271.65Z"/><path class="cls-1" d="M335.86,258.23a21.28,21.28,0,1,0-21.28-21.28A21.32,21.32,0,0,0,335.86,258.23Z"/><path class="cls-1" d="M416.29,259.1A21.61,21.61,0,1,0,395,237.5,21.48,21.48,0,0,0,416.29,259.1Z"/><path class="cls-5" d="M335.68,253.83a17.21,17.21,0,1,0-17.21-17.21A17.24,17.24,0,0,0,335.68,253.83Z"/><path class="cls-5" d="M416.11,254.58a17.48,17.48,0,1,0-17.21-17.47A17.38,17.38,0,0,0,416.11,254.58Z"/><path class="cls-6" d="M363.11,215.52l.1.12a34.9,34.9,0,1,1-62.88,20.85,35.15,35.15,0,0,1,6.94-20.81l.22-.27"/><path class="cls-6" d="M443.55,215.68l.17.21A35.58,35.58,0,0,1,450.6,237c0,19.52-15.7,35.46-34.92,35.46S380.76,256.47,380.76,237a36.06,36.06,0,0,1,6.88-21.06l.23-.32"/><path class="cls-6" d="M359.19,215.51l.93,1a32.09,32.09,0,1,1-49.79.18l1.13-1.3"/><path class="cls-6" d="M439.63,215.67l.89,1a32.86,32.86,0,0,1,7.34,20.67c0,18-14.47,32.61-32.11,32.61s-32.11-14.62-32.11-32.61a33.07,33.07,0,0,1,7-20.36l1.24-1.41"/></g></g></svg>